<svg xmlns="http://www.w3.org/2000/svg" xmlns:xlink="http://www.w3.org/1999/xlink" viewBox="0 0 500 475.42">
  <defs>
    <style>
      .cls-1,
      .cls-21,
      .cls-27,
      .cls-28,
      .cls-29 {
        fill: none;
      }
      .cls-2 {
        isolation: isolate;
      }
      .cls-3 {
        fill: #1d1d1b;
        opacity: 0.05;
      }
      .cls-4 {
        opacity: 0.47;
      }
      .cls-5 {
        fill: #d0ddef;
      }
      .cls-37,
      .cls-6 {
        fill: #fff;
      }
      .cls-7 {
        fill: #b8d8eb;
      }
      .cls-8 {
        fill: #bed0e5;
      }
      .cls-9 {
        fill: #cde8fb;
      }
      .cls-10 {
        fill: #dbdbdb;
        opacity: 0;
        mix-blend-mode: multiply;
      }
      .cls-11 {
        clip-path: url(#clip-path);
      }
      .cls-12 {
        fill: #57b4e5;
      }
      .cls-13 {
        fill: #e28e54;
      }
      .cls-14 {
        fill: #ffa15a;
      }
      .cls-15 {
        fill: url(#Degradado_sin_nombre_136);
      }
      .cls-16 {
        fill: #bfbfbf;
      }
      .cls-17 {
        fill: #90c7e9;
      }
      .cls-18 {
        fill: #1499d7;
      }
      .cls-19 {
        fill: #ffa400;
      }
      .cls-20 {
        fill: #102337;
      }
      .cls-21 {
        stroke: #d6e3f4;
        stroke-miterlimit: 10;
        stroke-width: 2px;
      }
      .cls-22 {
        fill: #d6e3f4;
      }
      .cls-23 {
        opacity: 0.82;
      }
      .cls-24 {
        fill: #5eb3e4;
      }
      .cls-25 {
        fill: #9acee8;
      }
      .cls-26 {
        fill: #fcd672;
      }
      .cls-27,
      .cls-28 {
        stroke: #d0ddef;
        stroke-width: 1.98px;
      }
      .cls-27,
      .cls-28,
      .cls-29 {
        stroke-linecap: round;
        stroke-linejoin: round;
      }
      .cls-28 {
        stroke-dasharray: 8.54 8.54;
      }
      .cls-29 {
        stroke: #fff;
        stroke-width: 2.1px;
      }
      .cls-30 {
        fill: #1399d7;
      }
      .cls-31 {
        fill: #76c0e8;
      }
      .cls-32 {
        fill: #10a4d6;
      }
      .cls-33 {
        clip-path: url(#clip-path-2);
      }
      .cls-34 {
        fill: #042834;
        opacity: 0.2;
      }
      .cls-35 {
        fill: #dae8f7;
      }
      .cls-36 {
        fill: url(#Degradado_sin_nombre_153);
      }
      .cls-37 {
        opacity: 0.22;
      }
      .cls-38 {
        fill: #f3c74f;
      }
      .cls-39 {
        fill: #a5bace;
        opacity: 0.75;
      }
    </style>
    <clipPath id="clip-path"><path class="cls-1" d="M491.13,219c-59-112.46-269,72.09-312.87-164.37C157.83-55.55-5.18,22.77.13,213.22,4,350.44,103.84,437,241.11,437S539.84,311.76,491.13,219Z" /></clipPath>
    <linearGradient id="Degradado_sin_nombre_136" x1="321.66" y1="223.38" x2="329.83" y2="237.52" gradientUnits="userSpaceOnUse">
      <stop offset="0.3" stop-color="#fff" />
      <stop offset="0.59" stop-color="#f2f2f2" />
      <stop offset="0.97" stop-color="#dadada" />
    </linearGradient>
    <clipPath id="clip-path-2">
      <path
        class="cls-1"
        d="M361,289.07,358.89,341l-10.69-.66a41,41,0,0,0,11,6.74c5.09,2.27,10.45,3.88,15.73,5.64q8.83,2.93,17.76,5.57c2.93.87,5.94,1.73,9,2.51a64.8,64.8,0,0,0,6.31-17c8.77-37.53,13.77-45.14,13.79-69,0-19.41-14-25-14-25l-15.63-10.24-20.26.45,1.32.71s-17.69,35.88-17.8,38C354.86,288.89,361,289.07,361,289.07Z"
      />
    </clipPath>
    <linearGradient id="Degradado_sin_nombre_153" x1="371.54" y1="229.03" x2="407.54" y2="229.03" gradientUnits="userSpaceOnUse">
      <stop offset="0.45" stop-color="#f6f6f6" />
      <stop offset="0.84" stop-color="#dadada" />
    </linearGradient>
  </defs>
  <title>aa generica</title>
  <g class="cls-2">
    <g id="Capa_2" data-name="Capa 2">
      <g id="ARRIBOTA">
        <path class="cls-3" d="M491.13,219c-58-110.51-268.85,72.94-312.87-164.37C157.83-55.55-5.18,22.77.13,213.22,4,350.44,103.84,437,241.11,437S539.84,311.76,491.13,219Z" />
        <path
          class="cls-5"
          d="M205.56,177.31V141.83H181.73v35.48h-1.18V152.38H161.69v24.93H33.31A4.37,4.37,0,0,0,35,174.19c2.59-.08,4.3-.24,4.52-.51,1.11-1.33-.88-10-1.32-11.14s-6.74-2.16-6.74-2.16-2.87-8.36-6-8.36H4.38L2,169.43c-.26-.05-.8,8.79-.8,8.79h0v1H223.47v-1.9ZM5.65,173.81c4.93.16,13.35.39,20.57.44A4.44,4.44,0,0,0,28,177.31H3.89A4.42,4.42,0,0,0,5.65,173.81Z"
        />
        <path class="cls-6" d="M147.68,190.87s12.62,5.4,13.51,8.82c1.08,4.19.27,4.37-2.43,6.56-2.4,2-5.31,6.41-5.31,6.41l-5.91.9a13.26,13.26,0,0,1-6.71-3.36c-3-2.86-3.69-3.66-4.69-6s1-13.1,1-13.1Z" />
        <path
          class="cls-7"
          d="M149.21,191a71.56,71.56,0,0,1-11,2.09c-5,.41-25.53-96.31-25.91-103.2s-.77-18.31,8.78-19.13,15.28.88,18.81,7.51c1.43,2.69.93,7.18,1.63,10.61,3.76,18.19,1.73,44.67,3.23,55.64C147.19,162.61,149.21,191,149.21,191Z"
        />
        <path
          class="cls-8"
          d="M151.23,202.24l12.39,4.38s3.49-3.74,8.29-2.11,5.78,6,6.35,8.46l-4.65-1.39-2.44-2.87-5,1.88-.18,4.92,3.22,2.51,3.52-1.63,3.91.86s-2.89,5-8.3,4.86c-4.62-.08-6.74-1.86-7.62-6.23a4.46,4.46,0,0,1,.24-3.2s-12.77-3.61-13.65-6.35c-1.49-4.6,5.17-5.8,5.17-5.8"
        />
        <path
          class="cls-5"
          d="M138.08,177l-.09,0,0,1H56.17c2.18-6.48,3.29-8.27,3.6-8.69,1.84-8.5,4.34-22.72,1.94-28.27-3.52-8.16-20.7-58.51-9.36-67.7,2.48-2,3.79-2.79,11.42-6s25.49-6.76,25.49-6.76l12.07-.34s29.88,8.49,36.54,14.45c13,11.63,1.11,76,.52,89.9C138,174.57,138,176.6,138.08,177Z"
        />
        <path class="cls-6" d="M138.08,177h0S138.1,177.09,138.08,177Z" />
        <path
          class="cls-9"
          d="M350.24,413.87c-3-.13-6.29-.37-9.23-.65-29.11-2.81-77.15-37.88-77.15-37.88l39.62-34.86s15.08-76,22.1-107.87,10.87-26.66,27-26.66,50.15-1,77.51,2.46,19.64,28.05,19.64,28.05-11.58,89.78-29.81,133.27a73,73,0,0,1-3.78,8.07c-1.58,2.65-20.1,13.66-34.12,21.08S350.24,413.87,350.24,413.87Z"
        />
        <path
          class="cls-10"
          d="M223,461.83c6.56-7.11,9.6-7.83,11.19-10.46s31.21-94.11,31.21-94.11,2.1-8.06,16.83-10.17c10.57-1.51,55-3.51,79.75-3.23,4.43.85,8.88,1.63,13.38,2,5,.46,10,.71,15.06,1s10.09.5,15.12.94c1.93.16-9.7-.7-7.77-.55-9,36.2-13,35.32-21.3,37.4s-18.2,1.91-42.47-3c-22.26-4.51-50.54-14.32-50.54-14.32s.23,7.73-3.93,21.78c-6.49,21.92-34.55,63.5-36,67.49s-.38,5-1.27,7.49c-1.53,4.25-8.55,4.35-10.84,5.89-1.08.72-5.88,4.75-8.59,5.09C206.58,477.07,215.53,469.92,223,461.83Z"
        />
        <g class="cls-11">
          <path
            class="cls-12"
            d="M30.41,368.23C31.18,364.75,46.78,208.33,52,190c0,0,11.67-38.86,10.91-45.56a3.81,3.81,0,0,0,.61-.52c4.44-5.08,10.16-11.85,10.88-18.24.76-6.81.49-5.62.16-12.51-.35-7.32-1.87-22.49-7.76-46.87,0-.13,6.12-1.18,8-2,1.89,5.5,7.38,37,8,37.85.82,1.13,3.91,0,9.28-.56,7.9-.87,21.61-1.7,29.58-2.12,0,0-.32-2.28-.69-5-1.31-9.57-5.15-20.38-5.75-30.12,2.84,1,5.76,2,8.52,3.14.16,1,.18,3,.45,4a4.31,4.31,0,0,0,.45,1.1c2.16,10.36,4.41,21.34,6.43,31.69,2.16,11,5,21,11,30.76-1.44,13.14-3.09,24.54-3.3,29.52-.42,10-.37,12-.31,12.38l-.09,0-.16,10.59s14,40.61,16.57,55.92,10.36,51.75,10.36,51.75L176,339.74l3,12.1s12.26,6.69,16.15,7.85,5,2.56,5.28,4.88-8.7,1.77-8.7,1.77-26.69-.12-26.87-.14c-3.1-.47-6.21-.24-5.44-6,.49-3.62,1.58-11.88,1.95-18.46-9.24-17.79-61.06-112-64.23-117.58L52.45,332.32,44.69,352.5,44.6,362,59,366.89s3.11.93,3.63,3a3,3,0,0,1-.54,3H62a3.9,3.9,0,0,1-1,.65L33.52,372S29.63,371.71,30.41,368.23Z"
          />
        </g>
        <path class="cls-6" d="M312.77,354.88a5.94,5.94,0,0,0-4.65,2.14l-4.88-.57q-2.39-.79-4.82-1.43,19.6-1.22,39.24-1.09Q325.23,354.65,312.77,354.88ZM379.68,369a6.6,6.6,0,0,0-1.68-2.55l4,.76C381.26,367.85,380.48,368.44,379.68,369Z" />
        <path
          class="cls-6"
          d="M416.76,254.35c-1.38-1.25-5.7-3.56-10.41-5.9l-.12-.67-5.67-3.08h0l-8.7-4.73h-20l-14.45,11.4a76.87,76.87,0,0,1,5.67,6c-3.64,9.47-7.64,20.14-7.7,21.32-.53,10.17,5.61,10.35,5.61,10.35L359,339c8.17,9.44,10.25,23.35,10.54,35.5q0,1.56,0,3.12l4.42.92s25.26,2.8,34-34.72,4.56-59.27,4.56-59.27l-3.4-19.79a7.3,7.3,0,0,1,1.82-.55,18.9,18.9,0,0,1,9.57.92,1.06,1.06,0,0,1,.46.07c1,.4,2,.84,3,1.27C421.57,260.93,419.48,256.8,416.76,254.35Z"
        />
        <path
          class="cls-1"
          d="M297.58,435.16s1.3.27,3.1,2.63a12.91,12.91,0,0,1,1.74,3.43h49.3a3.26,3.26,0,0,1-.24-1.21V412.4a3.17,3.17,0,0,1,3.16-3.16H356a3.17,3.17,0,0,1,3.16,3.16V440a3.26,3.26,0,0,1-.24,1.21h39.87a14,14,0,0,1,1.82-4.21c1.65-2.37,2.84-2.63,2.84-2.63s5.25,8.41,3.94,10c-.58.7-2.4.47-4.24,0H300.73c-2.57.81-6.5,1.83-7.45.79C291.85,443.58,297.58,435.16,297.58,435.16Z"
        />
        <path class="cls-13" d="M400.56,244.7,371.87,240l-49.8,39.28L325.58,240l-6-1.75s-11.58,31-13,49.72c-.79,10.13,2.84,13.84,9.88,12,9.58-2.5,43.34-26.28,43.34-26.28Z" />
        <path
          class="cls-7"
          d="M370.49,358.2c-11.44-3.76-24.41-7.91-31.41-18.46l-25.43-1.57s-45.23-3.21-52.6-.41-66.93,63.32-73.83,64.92c-9.54,2.21-13.32-4.12-17.41-5.24-5.14-1.41-12.76-.5-6.52,6.68,5.66,6.51,9.63,7.1,14.77,14.24,1.1,1.53,4.07,4.35,7.56,2.61,2.34-1.16,3.31-3.57,5.12-5.66,9.12-10.53,23.89-19.12,23.89-19.12l63-37.68,96.36,20s13.18,1.46,23.8-11.87C388.55,364.28,379.48,361.15,370.49,358.2Z"
        />
        <path
          class="cls-14"
          d="M361,289.07,358.89,341l-10.69-.66a41,41,0,0,0,11,6.74c5.09,2.27,10.45,3.88,15.73,5.64q8.83,2.93,17.76,5.57c2.93.87,5.94,1.73,9,2.51a64.8,64.8,0,0,0,6.31-17c8.77-37.53,13.77-45.14,13.79-69,0-19.41-14-25-14-25l-15.63-10.24-20.26.45,1.32.71s-17.69,35.88-17.8,38C354.86,288.89,361,289.07,361,289.07Z"
        />
        <path class="cls-15" d="M319.62,238.22l.52-9.82s-.35-6,5.26-6.49,8.21,3.07,8.77,5.08a38.49,38.49,0,0,1,.75,6.14,19.16,19.16,0,0,1-5.27-.22,8.14,8.14,0,0,1-3.37-1.49l-.7,8.55Z" />
        <path class="cls-6" d="M339.89,243.54a12.62,12.62,0,0,1-12.62-12.63h25.25A12.63,12.63,0,0,1,339.89,243.54Z" />
        <path
          class="cls-7"
          d="M219.36,456.65c6.56-7.11,9.59-7.83,11.19-10.46S261.75,354,261.75,354s2.11-8.07,16.83-10.17c10.57-1.51,55-3.52,79.75-3.23,4.43.85,8.89,1.63,13.39,2,5,.45,10,.71,15.06,1s10.09.5,15.11.94c1.94.17,3.87.38,5.8.53-9,36.2-26.6,39.93-34.9,42s-19-.83-42.49-6.22-46.84-13.47-46.84-13.47.89,4.93-3.27,19c-6.49,21.92-38.86,61.12-40.36,65.11s-.37,5-1.26,7.49c-1.54,4.25-8.55,4.35-10.85,5.89-1.08.72-5.88,4.75-8.58,5.09C202.93,471.89,211.89,464.74,219.36,456.65Z"
        />
        <path
          class="cls-16"
          d="M182.84,417.66a33.32,33.32,0,0,1-7.08-7.29c-1.35-1.82-4.12-4.89-2.74-7.31a3,3,0,0,1,3.35-1.32,4.67,4.67,0,0,1,1.36.62,10.13,10.13,0,0,1,1.23.06c-4-1.37-6.51-4.26-9.15-5-5.14-1.41-12.76-.5-6.52,6.68,5.66,6.51,9.63,7.1,14.77,14.24,1.1,1.53,4.07,4.35,7.56,2.61a6.47,6.47,0,0,0,1.77-1.31A12.81,12.81,0,0,1,182.84,417.66Z"
        />
        <path
          class="cls-12"
          d="M381.19,345.57C359.66,341.59,359,339,359,339s-85.73-7.89-97.93-4.2-48,45.36-66,61.85c1.57,3.19,4.49,5.59,7.79,7.58a127.58,127.58,0,0,1,11.75-8l63-37.68,96.36,20s13.18,1.46,23.8-11.87C388.55,364.28,390.49,347.3,381.19,345.57Z"
        />
        <path class="cls-16" d="M221.67,463c-1.89,1-5-.8-5.56-2.91-6.28,6.54-10.84,11.53,3,9.84,2.7-.34,7.5-4.37,8.58-5.09,2.3-1.54,9.31-1.64,10.85-5.89.8-2.21,0-3.27.88-6.33C237.53,455.6,232.67,457.15,221.67,463Z" />
        <path
          class="cls-17"
          d="M401.89,344.51c-5-.44-10.07-.67-15.11-.94s-9.42-.29-15.06-1-6.12-.67-10.56-1.52c-24.74-.29-72,1.2-82.58,2.71-14.72,2.1-16.83,10.17-16.83,10.17s-17.4,52.66-26.24,78.43a50.6,50.6,0,0,0,14.64,4.41c10.51-14.43,25.8-36.14,30-50.46,4.16-14.05,3.27-19,3.27-19s23.3,8.09,46.84,13.47,34.19,8.29,42.49,6.22,25.86-5.8,34.9-42C405.76,344.89,403.83,344.68,401.89,344.51Z"
        />
        <path class="cls-18" d="M53.71,191.28c-1.9-2.33,17.93-18.91,19.72-17.45C74.51,174.68,55.61,193.61,53.71,191.28Z" />
        <path class="cls-18" d="M138.17,187.51c-2.75-2.91-23-30.32-1-4.39l1,1.11" />
        <path class="cls-19" d="M129.47,102.86s10-20.7,10.95-22.8,3.21-1.55,5-.56,12.18,6.2,13.17,7,1.55,1.66,0,4.64-9,15.5-9,15.5l-5.87,8.52L127.25,108Z" />
        <path class="cls-6" d="M54.26,154.6C73,162.9,115,129.66,129.4,121.19c-2.41.13-3.82-7-6.85-6-20.24,6-52.31,22.82-56.82,16.31C58.09,113.24,63.45,51.57,51,75.58" />
        <path
          class="cls-6"
          d="M126.3,121.19c-1.22-1.47-2.8-3-3-4-1.25-8.2,6.83-23.67,9.44-21.17.4,1.59-3.87,10.18-.45,11.5,6.24,2.4,12.66-9.92,17.15-11.47,2.25-.77-7.19,11.9-7,12.12s7.07-7.94,10.6-9.49c2-.87-7.83,12-7,12.63-.61-.42,7.15-9.5,7.73-9.14C154.52,104.06,148.18,120.33,126.3,121.19Z"
        />
        <path
          class="cls-18"
          d="M59,226.68l6,.66c2.51.36,4.67.47,5.21,1.46s.25,1.58,0,4.09S68.83,250,68.83,250a9.83,9.83,0,0,1-.71,3.33,2.89,2.89,0,0,1-1.56,1.53s-6.5,1.52-8,1.4-9-4-10.53-5.24-1-4.79-1-4.79,1.19-11,1.57-16.22,1-4.38,4.82-4,5.54.66,5.54.66"
        />
        <path class="cls-5" d="M49.92,76.22c-9,13.66-4.89,76,3.27,79,19.23,7.19,58.1-20.77,75.14-33.64-2,.11-3.43-.77-4.86-2.71a6.73,6.73,0,0,1-1.34-3.45c-20.24,6-39.73,11.55-51.77,14.49C71.62,111.29,62.38,52.22,49.92,76.22Z" />
        <path
          class="cls-20"
          d="M94.38,37.84S97,48.33,98.6,49.37c2.76,1.75,4.3-2.3,4.3-2.3s1-2.73,11-2.39c9.55.32,8.87,5.73,8.83,7.5s-.82,6.33-3.22,8.74a8.31,8.31,0,0,1-7.41,2.84c-3.78-.23-8.14-1.4-10.94-4s-7-7.83-8.79-11.86c-5.3-11.74-4.78-19.34-4.78-19.34l5.4-.24Z"
        />
        <path
          class="cls-6"
          d="M108.62,63.25a9,9,0,0,1-1.52-.34l-1-.34a13.75,13.75,0,0,1-4.91-2.86A46,46,0,0,1,92.42,48c-.19,1.06-.52,3-.92,5.54-.61,4-1,4.9-2.81,7.68l-.63,1a9.35,9.35,0,0,0-3.23,1.56,7,7,0,0,0-3,4.73c-.27,2.14,1.21,8,11.09,8.43s14.14-1.21,17.8-4.69-1-8.26-1-8.26A4.72,4.72,0,0,0,108.62,63.25Z"
        />
        <path
          class="cls-6"
          d="M125.05,26.92c-.75-7-4.81-9.1-21.15-7.8-12,1-15.41,4.95-16.13,9.38L93,28.27,94.26,37a8.4,8.4,0,0,0-1.61-1.5c-3.23-2.34-6.83-2-7.24.07a6.47,6.47,0,0,0,1.81,6.06s2.44,2.39,4.92,1.73c1.65-.43,1.4-1.83,1.38-2.59L95,40.36c.87,3.17,2.43,8.3,3.56,9,2.76,1.75,4.3-2.3,4.3-2.3s1-2.73,11-2.39c8.84.3,8.91,4.94,8.85,7C124,44.93,125.78,33.92,125.05,26.92Z"
        />
        <path
          class="cls-20"
          d="M160.71,342.66c4.15,0,11.45,0,15.61-.09.75,2.37,4.45,6.55,6,8.53,2.17,2.84,13.89,6.84,17.06,8s3.6,3.88,3.81,6.16S200,367.3,200,367.3s-33.88,0-36.42-.45-5.07-.23-4.44-5.94C159.51,357.33,160.41,349.15,160.71,342.66Z"
        />
        <path class="cls-21" d="M494.05,286.31c-3.69-52.29-7.16-102.07-7.49-109.1-.74-15.49-12.39-36.21-43.09-37.11" />
        <path class="cls-8" d="M494.79,285.07c-2.4-34-4.69-66.77-6.07-87.21l-1.66.11c1.42,21,3.8,55,6.27,90" />
        <path class="cls-5" d="M443.88,132.45a6.33,6.33,0,0,0-11.41-1.85Z" />
        <path class="cls-22" d="M437,140.33c-10.58-1.72-21.37,10.47-24.09,27.23l38.34,6.22C454,157,447.6,142.05,437,140.33Z" />
        <rect class="cls-8" x="410.73" y="170.63" width="42.16" height="2.11" rx="1.05" ry="1.05" transform="translate(33.07 -66.93) rotate(9.22)" />
        <g class="cls-23"><path class="cls-24" d="M474.82,321.94c-4.08-7.26-5.2-14.71-4.24-23a40.22,40.22,0,0,1,10.24-22.34A56.13,56.13,0,0,1,477.41,318" /></g>
        <path class="cls-24" d="M473.8,323.32c-8.77,2.85-16.28,2.36-24.55-1.75,8.5-3,17.26-3.1,25.57.37" />
        <g class="cls-23"><path class="cls-25" d="M474.82,321.94c-7.2-5.21-13.95-11.34-17.11-19.65-.6-1.59-1-3.57.07-4.85a3.28,3.28,0,0,1,3-.9,7.92,7.92,0,0,1,3,1.38,28.78,28.78,0,0,1,6.48,6" /></g>
        <path class="cls-1" d="M491.13,219c-59-112.46-269,72.09-312.87-164.37C157.83-55.55-5.18,22.77.13,213.22,4,350.44,103.84,437,241.11,437S539.84,311.76,491.13,219Z" />
        <path class="cls-1" d="M491.13,219c-58-110.51-268.85,72.94-312.87-164.37C157.83-55.55-5.18,22.77.13,213.22,4,350.44,103.84,437,241.11,437S539.84,311.76,491.13,219Z" />
        <path class="cls-20" d="M127.25,29c-2.15,6.13-5.72,5.15-8.92,4-7.32-2.74-15.8-7-15.8-11.82s5.89,3.09,13.7,3.09S127.25,29,127.25,29Z" />
        <path
          class="cls-14"
          d="M127,24.53a68.81,68.81,0,0,0,8.08,3.33c-16.44,2.43-24.56,3.56-40.82.15,8.52-1,17.16-1.74,25.67-2.69l7.07-.79c0-8.27-.22-14.55-5.8-19.73-3.56-3.3-10.1-2.7-15-2.93A21.26,21.26,0,0,0,89,8.59c-5,5.27-3.61,9.47-3.71,15.06,0,1.61-.41,4.58-.41,4.58a27.87,27.87,0,0,0,9.3-.2L127,24.53"
        />
        <line class="cls-26" x1="94.13" y1="28.03" x2="127" y2="24.53" />
        <path class="cls-14" d="M127,24.53a68.81,68.81,0,0,0,8.08,3.33c-16.44,2.43-24.56,3.56-40.82.15,8.52-1,17.16-1.74,25.67-2.69l7.07-.79" />
        <path
          class="cls-13"
          d="M94.31,4.41l-.67.39h0c2.88-1.74,7.62-3.36,11.63-3,4.65.47,4.54,4.26,4.7,9,.2,5.78-.51,15.55-.51,15.55l9.34-1,0-3.33s0-.15,0-.42c0-1.95.3-9.81-.52-13.92-.94-4.66-1.75-6.16-4.52-7.28-2.3-.93-9.58-.32-12.84.71a32.19,32.19,0,0,0-6.65,3.24"
        />
        <line class="cls-27" x1="296.43" y1="270.16" x2="292.18" y2="270.16" />
        <path class="cls-28" d="M283.64,270.16H252.2s-23.15.74-23.15-26.62V143.92s4.73-27.36-23.15-27.36H166.54" />
        <path class="cls-27" d="M162.27,116.56H158" />
        <rect class="cls-5" x="222.34" y="247.49" width="53.37" height="32.55" rx="2.64" ry="2.64" />
        <line class="cls-29" x1="227.33" y1="274.47" x2="241.11" y2="274.47" />
        <line class="cls-29" x1="245.8" y1="274.76" x2="256.36" y2="274.76" />
        <line class="cls-29" x1="261.05" y1="274.76" x2="263.69" y2="274.76" />
        <line class="cls-29" x1="227.33" y1="270.07" x2="234.07" y2="270.07" />
        <line class="cls-29" x1="240.82" y1="270.07" x2="269.56" y2="270.07" />
        <line class="cls-29" x1="227.33" y1="265.08" x2="242.58" y2="265.08" />
        <line class="cls-29" x1="247.27" y1="265.38" x2="252.84" y2="265.38" />
        <line class="cls-29" x1="256.95" y1="265.67" x2="261.64" y2="265.67" />
        <line class="cls-29" x1="227.33" y1="260.39" x2="269.56" y2="260.39" />
        <line class="cls-29" x1="227.33" y1="255.99" x2="237" y2="255.99" />
        <path class="cls-8" d="M400.56,244.7,371.87,240l-49.8,39.28L325.58,240l-6-1.75s-11.58,31-13,49.72c-.79,10.13,2.84,13.84,9.88,12,9.58-2.5,43.34-26.28,43.34-26.28Z" />
        <path
          class="cls-5"
          d="M361,289.07,358.89,341h0c3.17,2.9,8.29,5.44,12.18,7.18A134.34,134.34,0,0,0,385,353.68c5.89,2,16,3.79,19.1,3.08,1.67-3.79,2.28-6,3.9-13,8.77-37.53,13.77-45.14,13.79-69,0-19.41-14-25-14-25l-15.63-10.24-20.26.45,1.32.71s-17.69,35.88-17.8,38C354.86,288.89,361,289.07,361,289.07Z"
        />
        <path class="cls-5" d="M363.26,342.15c4.84,1.64,9.72,3.15,14.53,4.88,8.69,3.13,17.24,6.66,26.08,9.34a67.92,67.92,0,0,0,3-8.37q-6-1.61-11.9-3.25c-12-3.31-23.82-7.26-35.82-10.56l-.26,6.33C360.35,341.1,361.79,341.65,363.26,342.15Z" />
        <path class="cls-6" d="M319.62,238.22l.52-9.82s-.35-6,5.26-6.49,8.21,3.07,8.77,5.08a38.49,38.49,0,0,1,.75,6.14,19.16,19.16,0,0,1-5.27-.22,8.14,8.14,0,0,1-3.37-1.49l-.7,8.55Z" />
        <path class="cls-3" d="M339.89,243.54a12.62,12.62,0,0,1-12.62-12.63h25.25A12.63,12.63,0,0,1,339.89,243.54Z" />
        <path
          class="cls-30"
          d="M182.84,417.66a33.32,33.32,0,0,1-7.08-7.29c-1.35-1.82-4.12-4.89-2.74-7.31a3,3,0,0,1,3.35-1.32,4.67,4.67,0,0,1,1.36.62,10.13,10.13,0,0,1,1.23.06c-4-1.37-6.51-4.26-9.15-5-5.14-1.41-12.76-.5-6.52,6.68,5.66,6.51,9.63,7.1,14.77,14.24,1.1,1.53,4.07,4.35,7.56,2.61a6.47,6.47,0,0,0,1.77-1.31A12.81,12.81,0,0,1,182.84,417.66Z"
        />
        <path class="cls-30" d="M221.67,463c-1.89,1-5-.8-5.56-2.91-6.28,6.54-10.84,11.53,3,9.84,2.7-.34,7.5-4.37,8.58-5.09,2.3-1.54,9.31-1.64,10.85-5.89.8-2.21,0-3.27.88-6.33C237.53,455.6,232.67,457.15,221.67,463Z" />
        <path
          class="cls-31"
          d="M127,24.53a68.81,68.81,0,0,0,8.08,3.33c-16.44,2.43-24.56,3.56-40.82.15,8.52-1,17.16-1.74,25.67-2.69l7.07-.79c0-8.27-.22-14.55-5.8-19.73-3.56-3.3-10.1-2.7-15-2.93A21.26,21.26,0,0,0,89,8.59c-5,5.27-3.61,9.47-3.71,15.06,0,1.61-.41,4.58-.41,4.58a27.87,27.87,0,0,0,9.3-.2L127,24.53"
        />
        <path
          class="cls-32"
          d="M94.31,4.41l-.67.39h0c2.88-1.74,7.62-3.36,11.63-3,4.65.47,4.54,4.26,4.7,9,.2,5.78-.51,15.55-.51,15.55l9.34-1,0-3.33s0-.15,0-.42c0-1.95.3-9.81-.52-13.92-.94-4.66-1.75-6.16-4.52-7.28-2.3-.93-9.58-.32-12.84.71a32.19,32.19,0,0,0-6.65,3.24"
        />
        <g class="cls-33">
          <path
            class="cls-34"
            d="M385.58,322.69c-14.17-.82-27.16-10.9-45.39-25.09-.88-.69-1.1-2.8-1.41-3.88a3.78,3.78,0,0,1,.41-3.23,3.93,3.93,0,0,1,4.6-1.09c24.1,10.71,34.34,14.78,40.43,14.07s18.63-42.09,18.63-42.09,2.52-4.21,5.48-4.89,7,2.64,7,2.64,6.64,4.5-.7,29.35C411.83,298,404.49,323.79,385.58,322.69Z"
          />
        </g>
        <path
          class="cls-35"
          d="M385.58,320.8c-14.17-.82-27.16-10.9-45.39-25.1-.88-.69-1.1-2.79-1.41-3.87a3.78,3.78,0,0,1,.41-3.23,3.91,3.91,0,0,1,4.6-1.09c24.1,10.71,34.34,14.78,40.43,14.06s18.63-42.09,18.63-42.09,2.52-4.2,5.48-4.89,7,2.64,7,2.64,6.64,4.5-.7,29.36C411.83,296.11,404.49,321.89,385.58,320.8Z"
        />
        <path
          class="cls-36"
          d="M407.54,209.94c0-9.32-7.79-16.08-17.33-16.87-17.42-1.45-18.67,10.57-18.67,19.89,0,12.89,6.67,18.47,14.22,19.78a22.6,22.6,0,0,1-.33,4.49,34.45,34.45,0,0,1-1,6.31c-2.07,3-4.37,5.19-5.56,7.19-1.82,3.05-3.56,8.16-1.19,11,3.33,4,9.43,4.54,14.32.82S395.79,247,395.79,247v-7s.27-7,.92-11.93C403,224.55,407.54,216.87,407.54,209.94Z"
        />
        <path
          class="cls-20"
          d="M435.06,229.28a24.32,24.32,0,0,0-5.36-3.05l-1.15-.5c-3.45-1.5-6.93-2.89-9.21-5.64a8.7,8.7,0,0,1-.72-1,7.61,7.61,0,0,1-.51-.87c-2.31-4.43,0-15,0-15,2.24-12,.54-22.77-14.11-22.07-7.92.38-11.42,5.95-16.81,5.56s-12.27-5.59-18.73,2.31c-3.35,4.09-3.07,8.2-.5,16.92h0c1,4.62,2.43,9.37,1.36,14q-.12.51-.27,1c-.2.66-.45,1.3-.71,1.93-.54,1.26-1.17,2.49-1.73,3.74-.14.32-.28.63-.41.95-1.06,2.53-1.71,5.45-.68,8a7.7,7.7,0,0,0,3.11,3.57,10.61,10.61,0,0,0,2.67,1.18,13.46,13.46,0,0,0,1.89.38c.31,0,.63.08,1,.1l1,.05h1c.32,0,.65,0,1,0,.65,0,1.29-.09,1.94-.16l.77-.09a8.57,8.57,0,0,0,5-1.94,3.84,3.84,0,0,0,.7-.94,4,4,0,0,0,.39-3,2.54,2.54,0,0,0-1.06-1.47,25.25,25.25,0,0,1-11.72-13,23.78,23.78,0,0,1-1.51-5.75h0a21.15,21.15,0,0,1,1-9.75v0l.12-.31c.18-.46.36-.92.58-1.42v0a31,31,0,0,1,6.33-8.58l.11-.11a8.28,8.28,0,0,0-.51,3.94c-.05,1.78.52,3.92,3.09,6a7.73,7.73,0,0,0,.79.59h0c2,1.37,4.49,1.71,6.86,2.19s4.82,1.12,6.58,2.77a5.57,5.57,0,0,1,.88,1.05,4.11,4.11,0,0,1,.24.39,4.67,4.67,0,0,1-.05,5.07h0a2.86,2.86,0,0,1,1.84-.69,3.44,3.44,0,0,1,3.27,2,2.43,2.43,0,0,1,.13.38,3.42,3.42,0,0,1-3.16,3.9,2.8,2.8,0,0,1-.81-.09h0c-.7,1.75-1.4,3.51-2,5.3-.3.9-.57,1.8-.79,2.71a26.46,26.46,0,0,0-.52,2.77,18.4,18.4,0,0,0-.08,4.26,14.55,14.55,0,0,0,1,4.1,12.23,12.23,0,0,0,1.36,2.45,15.7,15.7,0,0,0,4.44,4c.85.55,1.74,1,2.63,1.55s1.78,1,2.65,1.48c13.39,7.79,15.54,15.55,13.65,37.73,0,0-.24,1.79,4.12,2,3.41.14,5.07-.22,7.06-1.34s3.92-5.09,3.88-8.31-1.42-6.24-2.68-9.2c-.32-.74-.63-1.49-.91-2.25-.15-.38-.28-.77-.41-1.15a14.38,14.38,0,0,1-.82-5.9c.37-3.73,2.66-6.77,4.86-9.89l.65-.94a24.25,24.25,0,0,0,2.75-4.94A15,15,0,0,0,435.06,229.28Z"
        />
        <rect class="cls-5" x="430.42" y="131.45" width="13.62" height="11.83" transform="matrix(0.99, 0.16, -0.16, 0.99, 27.64, -68.25)" />
        <path
          class="cls-37"
          d="M451.41,175.94l-39.54-6.42-16.08,72.4c.14.82,3.45,3.37,5.67,4.76s10.22,5.43,13.74,9.45c3.11,3.55,5.52,6.63,6.36,15.39,1.1,11.54-2.45,28.63-2.45,28.63s-3.31,13.12-7.25,27.91a99.61,99.61,0,0,0-2.23,26.88c.95,14,6.51,22.86,6.51,22.86s34.15-20.59,61.26-58.56l7.92-13.62Z"
        />
        <path class="cls-19" d="M340.66,277.71s-1.17-14.12-1.28-15.89-1.86-2.24-3.41-2.25-10.49-.51-11.42-.37-1.59.51-1.33,3.07,2.57,21.47,2.57,21.47h0l15.56.43Z" />
        <path class="cls-38" d="M337.49,267.58h0c.54,0,.85-.25.78-.79l-.37-4.13a1.16,1.16,0,0,0-1.09-1h0a.83.83,0,0,0-.87.95l.45,4A1.18,1.18,0,0,0,337.49,267.58Z" />
        <ellipse class="cls-39" cx="336.9" cy="262.78" rx="0.69" ry="0.8" transform="translate(-84.69 332.17) rotate(-47.3)" />
        <path
          class="cls-6"
          d="M336.46,278.14c-3.1,2.15-7.32.55-10.23-1.84-1.05-.86-1.94-2-3.21-2.43s-2,.4-1.76,1.74a7.83,7.83,0,0,0,1.65,3.09c2.61,2.91,3.88,3.61,7.52,5a17.45,17.45,0,0,1-5.81-3.27,5.33,5.33,0,0,0,1.15,5,8.45,8.45,0,0,0,5.1,2.07c-1,.28-2.12-.46-3.11-.86a13.41,13.41,0,0,1-2.22-1.46c-.34.47.1,2.54.28,3.09.67,2.07,1.61,3.42,3.68,4.11a20.94,20.94,0,0,0,6.47.74c.78,0,2.22,1.09,3,1,0,0-.31-1.75,1.82-4.56a12.11,12.11,0,0,1,3-2.13c0-.7-.5-.75-.53-1.44l-.45-12c0-1.08-.46-2.51-1.53-2.42-.6.05-1,.61-1.34,1.11l-3.48,5.35"
        />
        <rect class="cls-38" x="140.84" y="80.01" width="2.62" height="7.38" rx="1.31" ry="1.31" transform="translate(46.7 -50.84) rotate(24.16)" />
        <circle class="cls-19" cx="143.05" cy="81.7" r="1" />
      </g>
    </g>
  </g>
</svg>
